{
	"asset":{
		"version":"2.0",
		"generator":"Maxon Cinema 4D 2025.3.1 (#200000219)"
	},
	"scenes":[{
		"nodes":[0,
		1]
	}],
	"nodes":[{
		"name":"black",
		"mesh":0
	},
	{
		"name":"white",
		"mesh":1
	}],
	"meshes":[{
		"name":"black",
		"primitives":[{
			"attributes":{
				"POSITION":1
			},
			"indices":0,
			"material":0
		}]
	},
	{
		"name":"white",
		"primitives":[{
			"attributes":{
				"POSITION":3
			},
			"indices":2,
			"material":1
		}]
	}],
	"accessors":[{
		"bufferView":0,
		"byteOffset":0,
		"type":"SCALAR",
		"componentType":5123,
		"count":6498,
		"min":[0],
		"max":[1082]
	},
	{
		"bufferView":1,
		"byteOffset":0,
		"type":"VEC3",
		"componentType":5126,
		"count":1083,
		"min":[-0.24453821778297425,
		-0.30000221729278567,
		-0.029964720830321313],
		"max":[0.24453821778297425,
		0.30779364705085757,
		0.00011266037472523749]
	},
	{
		"bufferView":2,
		"byteOffset":0,
		"type":"SCALAR",
		"componentType":5123,
		"count":8040,
		"min":[0],
		"max":[1365]
	},
	{
		"bufferView":3,
		"byteOffset":0,
		"type":"VEC3",
		"componentType":5126,
		"count":1366,
		"min":[-0.22246898710727693,
		-0.27696582674980166,
		0.000035277775168651718],
		"max":[0.2215723842382431,
		0.27463749051094057,
		0.014051170088350773]
	}],
	"bufferViews":[{
		"buffer":0,
		"byteOffset":0,
		"byteLength":12996,
		"target":34963
	},
	{
		"buffer":0,
		"byteOffset":12996,
		"byteLength":12996,
		"target":34962
	},
	{
		"buffer":1,
		"byteOffset":0,
		"byteLength":16080,
		"target":34963
	},
	{
		"buffer":1,
		"byteOffset":16080,
		"byteLength":16392,
		"target":34962
	}],
	"buffers":[{
		"uri":"data:application/octet-stream;base64,",
		"byteLength":25992
	},
	{
		"uri":"data:application/octet-stream;base64,",
		"byteLength":32472
	}],
	"materials":[{
		"pbrMetallicRoughness":{
			"baseColorFactor":[0.0,
			0.0,
			0.0,
			1.0],
			"metallicFactor":0.0,
			"roughnessFactor":0.5
		},
		"emissiveFactor":[0.0,
		0.0,
		0.0],
		"alphaMode":"OPAQUE",
		"doubleSided":false,
		"name":"Mat.1"
	},
	{
		"pbrMetallicRoughness":{
			"baseColorFactor":[0.8,
			0.8,
			0.8,
			1.0],
			"metallicFactor":0.0,
			"roughnessFactor":0.5
		},
		"emissiveFactor":[0.0,
		0.0,
		0.0],
		"alphaMode":"OPAQUE",
		"doubleSided":false,
		"name":"Mat"
	}]
}